<svg width="31" height="31" viewBox="0 0 31 31" fill="none" xmlns="http://www.w3.org/2000/svg">
<g id="akar-icons:location">
<g id="Group">
<path id="Vector" d="M15.5 16.791C17.6401 16.791 19.375 15.0561 19.375 12.916C19.375 10.7759 17.6401 9.04102 15.5 9.04102C13.3599 9.04102 11.625 10.7759 11.625 12.916C11.625 15.0561 13.3599 16.791 15.5 16.791Z" stroke="white" stroke-width="2" stroke-linecap="round" stroke-linejoin="round"/>
<path id="Vector_2" d="M15.5003 2.58301C12.7598 2.58301 10.1314 3.6717 8.19356 5.60957C6.25568 7.54745 5.16699 10.1758 5.16699 12.9163C5.16699 15.3602 5.68624 16.9593 7.10449 18.7288L15.5003 28.4163L23.8962 18.7288C25.3144 16.9593 25.8337 15.3602 25.8337 12.9163C25.8337 10.1758 24.745 7.54745 22.8071 5.60957C20.8692 3.6717 18.2409 2.58301 15.5003 2.58301V2.58301Z" stroke="white" stroke-width="2" stroke-linecap="round" stroke-linejoin="round"/>
</g>
</g>
</svg>
